<?xml version="1.0" standalone="no"?>
<!DOCTYPE svg PUBLIC "-//W3C//DTD SVG 20010904//EN"
 "http://www.w3.org/TR/2001/REC-SVG-20010904/DTD/svg10.dtd">
<svg version="1.0" xmlns="http://www.w3.org/2000/svg"
 width="512.000000pt" height="512.000000pt" viewBox="0 0 512.000000 512.000000"
 preserveAspectRatio="xMidYMid meet">
<metadata>
Created by potrace 1.14, written by Peter Selinger 2001-2017
</metadata>
<g transform="translate(0.000000,512.000000) scale(0.100000,-0.100000)"
fill="#000000" stroke="none">
<path d="M2400 5104 c-363 -71 -640 -368 -686 -734 -4 -30 -7 -523 -7 -1095
l0 -1040 -41 -41 c-191 -192 -332 -457 -363 -684 -3 -19 -9 -55 -13 -80 -11
-61 -5 -302 10 -370 6 -30 14 -66 16 -80 3 -14 19 -65 36 -115 147 -430 516
-752 966 -842 103 -20 328 -24 433 -7 548 87 971 502 1069 1047 22 123 20 345
-5 462 -55 262 -185 502 -365 673 l-35 33 -1 1047 c-1 576 -4 1070 -8 1097
-39 284 -215 529 -471 657 -55 28 -160 63 -215 73 -69 13 -256 12 -320 -1z
m288 -431 c126 -43 219 -133 273 -265 l22 -53 2 -1153 1 -1152 126 -123 c173
-169 243 -288 283 -479 15 -71 21 -232 11 -279 -3 -13 -8 -35 -10 -49 -19
-117 -76 -248 -151 -349 -84 -112 -248 -238 -375 -285 -478 -178 -987 76
-1129 562 -38 129 -43 296 -14 412 3 14 7 32 9 40 2 8 15 47 30 88 42 116 112
213 247 344 l120 117 2 1148 c2 1253 -1 1184 59 1285 48 82 107 132 205 174
63 28 84 32 158 32 50 0 104 -6 131 -15z"/>
<path d="M2352 3405 c-3 -5 -6 -349 -6 -764 l-1 -754 -79 -41 c-146 -75 -261
-213 -316 -376 -31 -91 -35 -243 -9 -342 30 -118 84 -213 169 -298 122 -121
253 -179 425 -186 213 -8 399 80 542 258 36 45 93 173 108 245 36 169 -8 377
-108 511 -45 61 -154 152 -223 188 l-79 41 0 761 0 762 -25 1 c-134 6 -393 2
-398 -6z"/>
</g>
</svg>
